<?xml version="1.0" encoding="UTF-8" standalone="no"?>
<!-- Created with Inkscape (http://www.inkscape.org/) -->

<svg
   width="135.23663mm"
   height="122.49374mm"
   viewBox="0 0 135.23663 122.49374"
   version="1.1"
   id="svg1"
   xml:space="preserve"
   xmlns="http://www.w3.org/2000/svg"
   xmlns:svg="http://www.w3.org/2000/svg">
    <defs
     id="defs1" /><g
     id="layer7"
     transform="translate(-0.38742065,-0.29530716)"><ellipse
       style="fill:#ff8d00;fill-opacity:0.847003;stroke-width:0.264583"
       id="path60"
       cx="59.794472"
       cy="61.542175"
       rx="59.407051"
       ry="61.246868" /><ellipse
       style="fill:#ffd100;fill-opacity:0.847003;stroke-width:0.264583"
       id="path61"
       cx="106.34024"
       cy="32.884766"
       rx="29.283821"
       ry="30.846554" /></g><g
     id="layer1"
     transform="translate(-0.38742065,-0.29530716)"><rect
       style="fill:#ffeeaa;stroke-width:0.264583"
       id="rect1"
       width="29.599894"
       height="40.664337"
       x="26.60392"
       y="35.894211" /><rect
       style="fill:#ffeeaa;stroke-width:0.264583"
       id="rect2"
       width="4.8967924"
       height="9.7399759"
       x="31.175179"
       y="23.440619" /><rect
       style="fill:#ffeeaa;stroke-width:0.264583"
       id="rect3"
       width="20.223217"
       height="17.25392"
       x="32.368088"
       y="30.891371" /><rect
       style="fill:#ffeeaa;stroke-width:0.264583"
       id="rect4"
       width="35.930248"
       height="50.856976"
       x="20.124828"
       y="34.45015" /><rect
       style="fill:#ffeeaa;stroke-width:0.264583"
       id="rect5"
       width="28.565899"
       height="27.416121"
       x="24.434113"
       y="30.394468" /><rect
       style="fill:#ffeeaa;stroke-width:0.264583"
       id="rect6"
       width="7.3107042"
       height="10.423583"
       x="33.374519"
       y="24.230505" /><rect
       style="fill:#ffeeaa;stroke-width:0.264583"
       id="rect7"
       width="6.8764558"
       height="8.8179674"
       x="38.96611"
       y="25.149641" /><rect
       style="fill:#ffeeaa;stroke-width:0.264583"
       id="rect8"
       width="5.047502"
       height="7.1922441"
       x="45.415985"
       y="27.570982" /><rect
       style="fill:#ffeeaa;stroke-width:0.264583"
       id="rect9"
       width="2.7127771"
       height="6.3678932"
       x="51.50058"
       y="32.772736" /><rect
       style="fill:#ffeeaa;stroke-width:0.264583"
       id="rect10"
       width="7.6019063"
       height="14.890014"
       x="50.029236"
       y="34.95282" /><rect
       style="fill:#ffeeaa;stroke-width:0.264583"
       id="rect11"
       width="39.304615"
       height="38.666931"
       x="59.799828"
       y="41.826233" /><rect
       style="fill:#ffeeaa;stroke-width:0.264583"
       id="rect12"
       width="32.246799"
       height="41.206043"
       x="49.145416"
       y="45.07193" /><rect
       style="fill:#ffeeaa;stroke-width:0.264583"
       id="rect13"
       width="9.8676624"
       height="10.601666"
       x="56.542969"
       y="39.491043" /><rect
       style="fill:#ffeeaa;stroke-width:0.264583"
       id="rect14"
       width="35.033649"
       height="26.540071"
       x="63.932861"
       y="35.690994" /><rect
       style="fill:#ffeeaa;stroke-width:0.264583"
       id="rect15"
       width="27.715284"
       height="23.03299"
       x="66.911293"
       y="30.874144" /><rect
       style="fill:#ffeeaa;stroke-width:0.264583"
       id="rect16"
       width="5.4766421"
       height="8.5336084"
       x="93.589493"
       y="32.364868" /><rect
       style="fill:#ffeeaa;stroke-width:0.264583"
       id="rect17"
       width="5.6247973"
       height="3.8546293"
       x="60.857353"
       y="37.075439" /><rect
       style="fill:#ffeeaa;stroke-width:0.264583"
       id="rect18"
       width="7.4358702"
       height="2.6970916"
       x="61.902115"
       y="34.378357" /><rect
       style="fill:#ffeeaa;stroke-width:0.264583"
       id="rect19"
       width="7.4792948"
       height="8.9673262"
       x="63.342789"
       y="32.384979" /><rect
       style="fill:#ffeeaa;stroke-width:0.264583"
       id="rect20"
       width="3.5429583"
       height="6.9251204"
       x="65.989159"
       y="30.575422" /><rect
       style="fill:#ffeeaa;stroke-width:0.264583"
       id="rect21"
       width="16.746672"
       height="9.0678568"
       x="70.367401"
       y="28.694059" /><rect
       style="fill:#ffeeaa;stroke-width:0.264583"
       id="rect22"
       width="14.741466"
       height="10.061674"
       x="73.670242"
       y="26.387609" /><rect
       style="fill:#ffeeaa;stroke-width:0.264583"
       id="rect23"
       width="9.4078703"
       height="10.053058"
       x="78.679428"
       y="24.885389" /><rect
       style="fill:#ffeeaa;stroke-width:0.264583"
       id="rect24"
       width="8.0974607"
       height="5.3309927"
       x="79.458534"
       y="22.975309" /><rect
       style="fill:#ffeeaa;stroke-width:0.264583"
       id="rect25"
       width="6.993958"
       height="7.7781935"
       x="75.468544"
       y="24.965811" /><rect
       style="fill:#ffeeaa;stroke-width:0.264583"
       id="rect26"
       width="5.6835489"
       height="7.0256505"
       x="71.777428"
       y="27.846739" /><rect
       style="fill:#ffeeaa;stroke-width:0.264583"
       id="rect27"
       width="8.4090977"
       height="5.0035496"
       x="68.096535"
       y="29.854475" /><rect
       style="fill:#ffeeaa;stroke-width:0.264583"
       id="rect28"
       width="4.6004815"
       height="6.1122584"
       x="71.361069"
       y="25.936651" /><rect
       style="fill:#ffeeaa;stroke-width:0.264583"
       id="rect29"
       width="2.301518"
       height="2.9986832"
       x="69.097862"
       y="28.541822" /><rect
       style="fill:#ffeeaa;stroke-width:0.264583"
       id="rect30"
       width="4.7307563"
       height="7.077352"
       x="18.625397"
       y="80.340042" /><rect
       style="fill:#ffeeaa;stroke-width:0.264583"
       id="rect31"
       width="6.3068233"
       height="2.1140141"
       x="24.050949"
       y="83.76384" /><rect
       style="fill:#ffeeaa;stroke-width:0.264583"
       id="rect32"
       width="14.521787"
       height="4.8024893"
       x="38.089951"
       y="82.77002" /><rect
       style="fill:#ffeeaa;stroke-width:0.264583"
       id="rect33"
       width="11.931621"
       height="7.9017029"
       x="52.195374"
       y="84.186066" /><rect
       style="fill:#ffeeaa;stroke-width:0.264583"
       id="rect34"
       width="6.9505329"
       height="8.1056356"
       x="63.626328"
       y="81.974396" /><rect
       style="fill:#ffeeaa;stroke-width:0.264583"
       id="rect35"
       width="8.4933929"
       height="5.8365173"
       x="68.576775"
       y="82.129501" /><rect
       style="fill:#ffeeaa;stroke-width:0.264583"
       id="rect36"
       width="13.870414"
       height="5.9887495"
       x="42.412003"
       y="83.683411" /><rect
       style="fill:#ffeeaa;stroke-width:0.264583"
       id="rect37"
       width="5.3208232"
       height="5.0983362"
       x="34.289001"
       y="82.049072" /><rect
       style="fill:#ffeeaa;stroke-width:0.264583"
       id="rect38"
       width="3.7243209"
       height="3.0274062"
       x="30.539131"
       y="84.105652" /><rect
       style="fill:#ffeeaa;stroke-width:0.264583"
       id="rect39"
       width="11.847325"
       height="6.9279923"
       x="76.421341"
       y="79.262955" /><rect
       style="fill:#ffeeaa;stroke-width:0.264583"
       id="rect40"
       width="7.3566837"
       height="9.2200899"
       x="87.594299"
       y="76.562988" /><rect
       style="fill:#ffeeaa;stroke-width:0.264583"
       id="rect41"
       width="6.6056886"
       height="11.971755"
       x="92.700562"
       y="76.292969" /><rect
       style="fill:#ffeeaa;stroke-width:0.264583"
       id="rect42"
       width="5.0347304"
       height="0.70658624"
       x="63.406654"
       y="89.031631" /><rect
       style="fill:#ffeeaa;stroke-width:0.264583"
       id="rect43"
       width="3.5046422"
       height="3.283041"
       x="70.607521"
       y="86.20816" /><rect
       style="fill:#ffeeaa;stroke-width:0.264583"
       id="rect44"
       width="2.7332122"
       height="3.4927192"
       x="75.869583"
       y="85.128174" /></g><g
     id="layer6"
     transform="translate(-0.38742065,-0.29530716)" /><g
     id="layer5"
     transform="translate(-0.38742065,-0.29530716)"><rect
       style="fill:#ff6600;stroke-width:0.264583"
       id="rect45"
       width="17.135529"
       height="6.8495665"
       x="21.638443"
       y="87.204056"
       ry="3.4247832" /><rect
       style="fill:#ff6600;stroke-width:0.264583"
       id="rect46"
       width="11.041314"
       height="7.0219607"
       x="33.246468"
       y="87.579605"
       ry="3.5109804" /><rect
       style="fill:#ff6600;stroke-width:0.264583"
       id="rect47"
       width="4.1175647"
       height="5.3965349"
       x="42.549316"
       y="89.026489"
       ry="2.0587823" /><rect
       style="fill:#ff6600;stroke-width:0.264583"
       id="rect48"
       width="6.962079"
       height="4.325232"
       x="44.265884"
       y="90.097794"
       ry="2.0587823" /><rect
       style="fill:#ff6600;stroke-width:0.264583"
       id="rect49"
       width="5.9682784"
       height="3.4632642"
       x="48.862549"
       y="91.458481"
       ry="1.7316321" /><rect
       style="fill:#ff6600;stroke-width:0.264583"
       id="rect50"
       width="5.4563208"
       height="3.3770673"
       x="55.977943"
       y="92.655991"
       ry="1.6885337" /><rect
       style="fill:#ff6600;stroke-width:0.264583"
       id="rect51"
       width="12.35817"
       height="2.4873934"
       x="62.554001"
       y="91.209122"
       ry="1.2436967" /><rect
       style="fill:#ff6600;stroke-width:0.264583"
       id="rect52"
       width="22.890263"
       height="7.7330842"
       x="79.76619"
       y="86.893127"
       ry="1.2436967" /><rect
       style="fill:#ff6600;stroke-width:0.264583"
       id="rect53"
       width="10.236419"
       height="6.3169937"
       x="71.97731"
       y="88.13681"
       ry="1.2436967" /><rect
       style="fill:#ff6600;stroke-width:0.264583"
       id="rect54"
       width="11.509469"
       height="3.4632642"
       x="63.451981"
       y="91.966415"
       ry="1.2436967" /><rect
       style="fill:#ff6600;stroke-width:0.264583"
       id="rect55"
       width="5.0073309"
       height="1.8840157"
       x="69.869247"
       y="90.300964"
       ry="0.94200784" /><rect
       style="fill:#ff6600;stroke-width:0.264583"
       id="rect56"
       width="1.4263637"
       height="53.497425"
       x="100.55659"
       y="35.661423"
       ry="0.71318185" /><rect
       style="fill:#ff6600;stroke-width:0.264583"
       id="rect57"
       width="8.388443"
       height="3.7372468"
       x="17.479809"
       y="88.533951"
       ry="0.71318179" /><rect
       style="fill:#ff6600;stroke-width:0.264583"
       id="rect58"
       width="8.5581827"
       height="4.2513494"
       x="20.639168"
       y="87.74585"
       ry="0.71318179" /><rect
       style="fill:#ff6600;stroke-width:0.264583"
       id="rect59"
       width="8.3665409"
       height="5.3257308"
       x="16.110939"
       y="89.245056"
       ry="0.71318179" /><rect
       style="fill:#ff6600;stroke-width:0.264583"
       id="rect60"
       width="2.8280878"
       height="54.537945"
       x="15.437455"
       y="36.772766"
       ry="0.71318179" /></g><g
     id="layer2"
     transform="translate(-0.38742065,-0.29530716)"><path
       style="opacity:0.999947;fill:none;fill-opacity:1;stroke:#000000;stroke-width:2.065;stroke-linecap:butt;stroke-miterlimit:4.2;stroke-dasharray:none;stroke-opacity:1;paint-order:markers fill stroke"
       d="M 59.479582,40.282903 C 53.208679,27.865383 42.43672,24.010503 30.607761,22.166423 l -0.195435,54.66032 c 10.471884,-1.30138 19.924144,4.8618 28.704986,15.94035 -10.906968,-6.30504 -21.552617,-13.72991 -34.663344,-10.59117 l -0.324136,-52.43059 6.210993,0.91654 -6.234827,-1.60797 v 4.12177 l -5.205219,-0.2948 -0.185902,55.32494 c 11.914201,-4.53864 25.849856,0.0675 40.063995,5.93342 z"
       id="path12" /><path
       style="opacity:0.999947;fill:none;fill-opacity:1;stroke:#000000;stroke-width:2.065;stroke-linecap:butt;stroke-miterlimit:4.2;stroke-dasharray:none;stroke-opacity:1;paint-order:markers fill stroke"
       d="m 59.921722,96.848093 -3.342641,0.0683 -0.449061,-1.89071 -40.408791,-0.70237 0.111425,-58.59292 3.423673,0.32651"
       id="path13"/><path
       style="opacity:0.999947;fill:none;fill-opacity:1;stroke:#000000;stroke-width:2.065;stroke-linecap:butt;stroke-miterlimit:4.2;stroke-dasharray:none;stroke-opacity:1;paint-order:markers fill stroke"
       d="m 59.127472,40.193933 c 6.2709,-12.41752 17.04286,-16.2724 28.87182,-18.11648 l 0.19543,54.66032 c -10.47188,-1.30138 -19.92414,4.8618 -28.70498,15.94035 10.90697,-6.30504 21.55261,-13.72991 34.66334,-10.59117 l 0.32414,-52.43059 -6.211,0.91654 6.23483,-1.60797 v 4.12177 l 5.20522,-0.2948 0.1859,55.32494 c -11.9142,-4.53864 -25.84985,0.0675 -40.06399,5.93342 z"
       id="path12-9" /><path
       style="opacity:0.999947;fill:none;fill-opacity:1;stroke:#000000;stroke-width:2.065;stroke-linecap:butt;stroke-miterlimit:4.2;stroke-dasharray:none;stroke-opacity:1;paint-order:markers fill stroke"
       d="m 59.225552,96.865423 2.80242,-0.038 0.44906,-1.89071 40.408788,-0.70237 -0.11142,-58.59292 -3.423678,0.32651"
       id="path13-6" /></g><g
     id="layer4"
     transform="translate(-0.38742065,-0.29530716)" /><g
     id="layer3"
     transform="translate(-0.38742065,-0.29530716)"><path
       style="opacity:0.999947;fill:#000000;fill-opacity:1;stroke:#000000;stroke-width:0.6;stroke-linecap:butt;stroke-miterlimit:4.2;stroke-dasharray:none;stroke-opacity:1;paint-order:markers fill stroke"
       d="m 63.419672,41.410153 c 0.0833,-0.32524 0.0812,-0.6854 0.24986,-0.97573 0.24039,-0.41394 1.8803,-1.51875 2.36685,-1.71606 0.4744,-0.19239 1.2582,-0.0965 1.60379,-0.53912 0.80576,-1.03187 1.22039,-1.93086 2.36686,-2.73735 0.53955,-0.37954 2.23698,-0.0873 2.86319,-0.0873 0.73262,0 0.99156,-0.43295 1.67132,-0.63783 0.54444,-0.16409 1.40762,0.01 1.89754,-0.28854 1.05827,-0.64406 1.18991,-0.99039 2.00558,-1.87172 0.4109,-0.44398 1.10117,-0.4146 1.5599,-0.82766 0.69447,-0.62534 1.46619,-1.89071 2.5323,-1.89071"
       id="path30" /><path
       style="opacity:0.999947;fill:#000000;fill-opacity:1;stroke:#000000;stroke-width:0.600001;stroke-linecap:butt;stroke-miterlimit:4.2;stroke-dasharray:none;stroke-opacity:1;paint-order:markers fill stroke"
       d="m 64.834382,47.522673 c 0.68654,-0.62644 1.3058,-1.3357 2.05961,-1.87931 0.38847,-0.28015 5.89512,-3.35451 6.84397,-2.9044 0.23711,0.11248 0.37342,0.37613 0.59762,0.51254 0.49788,0.30291 1.56328,0.55132 2.15415,0.3379 0.58748,-0.21221 1.09672,-1.10085 1.50925,-1.49587 0.62087,-0.5945 1.43399,-0.99647 2.07648,-1.57179 1.56664,-1.40283 3.00825,-3.00726 4.81138,-4.10792"
       id="path31" /><path
       style="opacity:0.999947;fill:#000000;fill-opacity:1;stroke:#000000;stroke-width:0.600001;stroke-linecap:butt;stroke-miterlimit:4.2;stroke-dasharray:none;stroke-opacity:1;paint-order:markers fill stroke"
       d="m 67.072942,52.336763 c 2.05606,-0.96685 3.68435,-1.90532 5.89182,-2.38426 0.40476,-0.0878 0.85119,0.13566 1.24252,0 0.53115,-0.18415 0.75471,-1.34738 1.39783,-1.51485 0.53602,-0.13958 1.29846,0.2152 1.803,0 0.24152,-0.10301 0.38715,-0.35873 0.60775,-0.50115 1.05863,-0.68342 2.31778,-1.04954 3.38653,-1.71606"
       id="path32" /><path
       style="opacity:0.999947;fill:#000000;fill-opacity:1;stroke:#000000;stroke-width:0.600001;stroke-linecap:butt;stroke-miterlimit:4.2;stroke-dasharray:none;stroke-opacity:1;paint-order:markers fill stroke"
       d="m 68.832042,57.955733 c 3.5499,-2.73135 7.16925,-2.19126 11.25018,-2.91959 0.0129,-0.002 1.66855,-0.59585 1.87052,-0.6682"
       id="path33" /><path
       style="opacity:0.999947;fill:#000000;fill-opacity:1;stroke:#000000;stroke-width:0.600001;stroke-linecap:butt;stroke-miterlimit:4.2;stroke-dasharray:none;stroke-opacity:1;paint-order:markers fill stroke"
       d="m 67.133712,66.019703 c 4.32651,-1.52754 9.77749,-1.82522 13.57652,-4.52554"
       id="path34" /><path
       style="opacity:0.999947;fill:#000000;fill-opacity:1;stroke:#000000;stroke-width:0.600001;stroke-linecap:butt;stroke-miterlimit:4.2;stroke-dasharray:none;stroke-opacity:1;paint-order:markers fill stroke"
       d="m 67.998072,72.739683 c 0.95553,-1.14151 1.51049,-2.81043 2.86657,-3.42453 1.16483,-0.52749 2.54462,0.54137 3.81533,0.39865 0.77972,-0.0876 1.38351,-0.74355 2.10012,-1.06305 0.45609,-0.20335 1.26529,-0.17713 1.74223,-0.26956 1.89799,-0.36783 3.98292,-0.7055 5.72976,-1.55281"
       id="path35" /><path
       style="opacity:0.999947;fill:#000000;fill-opacity:1;stroke:#000000;stroke-width:0.600001;stroke-linecap:butt;stroke-miterlimit:4.2;stroke-dasharray:none;stroke-opacity:1;paint-order:markers fill stroke"
       d="m 36.638046,31.459263 c 1.271778,1.20099 2.348965,2.64926 3.815334,3.60297 0.791276,0.51464 1.864712,0.34556 2.75177,0.66821 0.791919,0.28804 4.08246,2.33113 5.078108,3.02588 0.380841,0.26575 0.755488,0.65716 1.174988,0.86943 0.526211,0.26626 1.131824,0.20668 1.67132,0.43281 0.287713,0.12059 0.48632,0.46342 0.790077,0.58847 0.592559,0.24395 2.269633,-0.0889 2.58295,0.14427 1.458923,1.0858 -1.257088,-0.49831 0.803582,0.63783"
       id="path36" /><path
       style="opacity:0.999947;fill:#000000;fill-opacity:1;stroke:#000000;stroke-width:0.600001;stroke-linecap:butt;stroke-miterlimit:4.2;stroke-dasharray:none;stroke-opacity:1;paint-order:markers fill stroke"
       d="m 36.320662,41.987233 c 2.155272,-0.11516 4.388321,-0.93071 6.465814,-0.34549 0.996032,0.28058 0.996804,1.82658 1.647682,2.63104 0.450196,0.55643 1.055203,0.96976 1.620673,1.40854 0.795899,0.61758 3.188732,0.77077 4.200247,0.93397 0.76794,0.12389 1.847461,-0.27084 2.572819,0 0.16324,0.0609 0.246692,0.25786 0.405167,0.3303 0.09622,0.044 0.233138,-0.064 0.317384,0 0.301995,0.2294 0.364588,0.74291 0.769818,0.896 0.802037,0.303 1.555671,0.3571 2.393871,0.41383"
       id="path37" /><path
       style="opacity:0.999947;fill:#000000;fill-opacity:1;stroke:#000000;stroke-width:0.600001;stroke-linecap:butt;stroke-miterlimit:4.2;stroke-dasharray:none;stroke-opacity:1;paint-order:markers fill stroke"
       d="m 38.508573,50.867483 c 1.409084,0.062 2.851055,-0.1229 4.227256,0.18603 1.135028,0.25479 2.043591,1.15909 3.163689,1.47308 0.84156,0.23592 2.27534,0.224 3.352768,0.224 0.296998,0 1.171213,-0.12046 1.475489,0 0.183568,0.0727 0.288496,0.28582 0.472697,0.35688 0.389617,0.1503 1.164312,0.2062 1.627425,0.30752 0.84646,0.1852 1.562889,-0.063 2.231803,0.50116"
       id="path38" /><path
       style="opacity:0.999947;fill:#000000;fill-opacity:1;stroke:#000000;stroke-width:0.600001;stroke-linecap:butt;stroke-miterlimit:4.2;stroke-dasharray:none;stroke-opacity:1;paint-order:markers fill stroke"
       d="m 38.059509,58.449293 c 1.670196,-0.1582 3.334237,-0.40797 5.010584,-0.47458 2.689056,-0.10685 4.9476,0.58564 7.424708,1.38956 0.877451,0.28476 2.515931,1.3326 3.251478,1.3326"
       id="path39" /><path
       style="opacity:0.999947;fill:#000000;fill-opacity:1;stroke:#000000;stroke-width:0.600001;stroke-linecap:butt;stroke-miterlimit:4.2;stroke-dasharray:none;stroke-opacity:1;paint-order:markers fill stroke"
       d="m 39.139959,65.294553 c 0.655831,0.1866 5.890517,1.62197 7.026293,2.11091 0.756619,0.32572 1.466284,1.1098 2.295957,1.37058 1.01795,0.31995 2.300729,0.1063 3.373024,0.1063"
       id="path40" /><path
       style="opacity:0.999947;fill:#000000;fill-opacity:1;stroke:#000000;stroke-width:0.600001;stroke-linecap:butt;stroke-miterlimit:4.2;stroke-dasharray:none;stroke-opacity:1;paint-order:markers fill stroke"
       d="m 38.336375,70.309863 c 0.889481,0.78543 1.720233,1.68982 2.667359,2.41084 1.351645,1.02898 2.533714,0.2614 3.291994,0.63783 0.297553,0.14772 0.49744,0.45023 0.790077,0.60746 0.444987,0.23909 0.940213,0.41814 1.380948,0.68339 0.454784,0.27369 0.819174,0.71824 1.276281,0.9947 0.399301,0.24151 0.976006,0.44582 1.431594,0.52014 0.175927,0.0287 0.585309,-0.089 0.739431,0 0.444765,0.25681 0.654768,0.70276 1.158108,0.90359 0.191598,0.0764 0.6369,-0.0895 0.786702,0.0228 0.109675,0.0822 0.126508,0.25684 0.239725,0.3341 0.06879,0.047 0.17239,-0.0306 0.249854,0 1.115441,0.44049 -0.318778,0.0578 0.573987,0.33031 0.722847,0.22061 1.59398,0.0516 2.187909,0.57708"
       id="path41" /><path
       style="opacity:0.999947;fill:#ffeeaa;fill-opacity:1;stroke:#000000;stroke-width:0.352089;stroke-linecap:butt;stroke-miterlimit:4.2;stroke-dasharray:none;stroke-opacity:1;paint-order:markers fill stroke"
       d="m 100.88821,76.304276 c 0.007,-0.180869 0.0442,-0.217659 0.0938,-0.0938 0.0448,0.112081 0.0393,0.245992 -0.0123,0.297583 -0.0516,0.05159 -0.0883,-0.04011 -0.0815,-0.20378 z"
       id="path49" /></g></svg>
